<svg width="758" height="599" viewBox="0 0 758 599" fill="none" xmlns="http://www.w3.org/2000/svg">
<g clip-path="url(#clip0_1_52)">
<path d="M117.333 435.98L69.3332 419.209C64.0487 393.034 65.2337 365.965 72.7852 340.351C90.9947 384.191 147.789 396.447 179.323 431.93C189.074 443.073 196.192 456.266 200.15 470.533C204.108 484.801 204.805 499.776 202.189 514.349L211.38 549.219C187.634 546.496 164.761 538.657 144.336 526.242C123.912 513.828 106.421 497.133 93.0698 477.308C85.6899 466.112 79.7492 454.031 75.3881 441.351C96.108 439.881 117.333 435.98 117.333 435.98Z" fill="#F2F2F2"/>
<path d="M172.442 331.28L138.922 293.048C147.211 267.664 161.572 244.687 180.757 226.112C175.019 273.235 218.416 311.869 228.39 358.28C231.39 372.779 231.089 387.767 227.509 402.133C223.929 416.5 217.161 429.877 207.709 441.273L198.538 476.149C179.211 462.086 163.163 444 151.499 423.138C139.835 402.276 132.832 379.133 130.973 355.303C130.063 341.925 130.841 328.485 133.289 315.301C152.047 324.224 172.442 331.28 172.442 331.28Z" fill="#F2F2F2"/>
<path d="M452.503 453.831H210.144C203.023 453.831 197.232 455.264 197.232 457.036V551.831H465.448V457.036C465.448 455.264 459.657 453.831 452.503 453.831Z" fill="#F2F2F2"/>
<path d="M271.281 546.06L269.016 564.511L339.105 582.027L342.448 554.795L271.281 546.06Z" fill="#9E616A"/>
<path d="M284.657 541.59L282.798 571.283L270.169 569.733L247.374 595.382C246.249 596.649 244.747 597.523 243.09 597.876C241.432 598.23 239.705 598.044 238.161 597.346C236.616 596.648 235.335 595.475 234.505 593.998C233.674 592.521 233.338 590.816 233.544 589.134L237.852 554.041L251.086 549.525L238.884 545.63L240.508 532.398L284.657 541.59Z" fill="#2F2E41"/>
<path d="M476.038 555.143L494.076 559.638L519.999 492.205L493.377 485.57L476.038 555.143Z" fill="#9E616A"/>
<path d="M522.078 584.881L499.398 559.131L502.478 546.781L499.268 546.181H499.248L479.208 542.441L473.228 541.321L458.728 584.021L471.668 587.251L477.017 575.611L479.258 586.301L479.888 589.291L514.198 597.841C515.841 598.251 517.573 598.124 519.14 597.48C520.706 596.836 522.026 595.708 522.906 594.26C523.786 592.813 524.181 591.122 524.032 589.435C523.882 587.747 523.198 586.152 522.078 584.881Z" fill="#2F2E41"/>
<path d="M324.688 548.131L331.228 547.101C324.208 554.411 317.468 559.241 311.068 560.741L314.168 549.781L324.688 548.131Z" fill="#2F2E41"/>
<path d="M515.728 515.221C509.538 529.061 505.078 537.921 505.078 537.921L502.868 536.761L497.048 533.711L483.188 526.441L480.808 525.191L481.488 511.971L484.508 453.511L485.788 428.871L432.958 456.791L370.448 489.831C367.888 494.291 365.344 498.631 362.818 502.851L320.348 473.721L363.448 410.831L388.568 399.091L383.148 398.041C384.533 396.038 386.1 394.167 387.828 392.451L389.728 391.381C389.728 391.381 509.258 325.541 543.648 359.301C546.614 362.32 548.839 365.986 550.148 370.011C561.938 403.871 532.488 477.781 515.728 515.221Z" fill="#2F2E41"/>
<path d="M489.428 577.151C486.853 581 483.357 584.146 479.258 586.301C475.785 588.2 472.108 589.7 468.298 590.771C417.618 605.581 306.708 576.151 306.708 576.151L311.068 560.741L314.168 549.781L324.688 548.131L331.228 547.101L409.448 534.831L387.898 520.051L362.818 502.851L320.348 473.721L269.448 450.831C210.448 403.831 259.848 351.131 259.848 351.131L292.868 327.731L303.588 320.131L369.448 353.831L388.568 399.091L394.448 413.001L432.958 456.791L481.488 511.971L481.868 512.401C483.271 513.466 484.591 514.636 485.818 515.901C486.268 516.341 486.738 516.831 487.218 517.361C491.58 522.08 494.925 527.645 497.048 533.711C498.426 537.711 499.175 541.901 499.267 546.131C499.272 546.138 499.275 546.147 499.275 546.156C499.275 546.165 499.272 546.173 499.267 546.181C499.488 554.991 496.958 565.381 489.428 577.151Z" fill="#2F2E41"/>
<path d="M237.273 373.374C234.646 372.581 233.31 371.616 233.066 370.337C232.707 368.46 234.818 366.787 237.262 364.847C238.966 363.497 243.461 361.146 241.818 360.422C216.9 349.451 277.48 193.693 295.058 175.994C298.63 172.397 298.204 165.097 302.964 158.601C315.967 140.862 327.375 137.648 350.1 131.247C351.945 130.727 353.867 130.183 355.866 129.614C358.453 128.876 355.726 136.224 357.074 131.298C358.572 125.823 360.122 120.16 363.843 117.453L364.085 117.276L364.384 117.295C371.271 117.751 393.754 121.525 405.286 129.667L405.445 129.781L405.538 129.952C407.664 133.917 406.16 139.901 404.706 145.686C403.512 150.436 406.384 142.921 407.528 145.363C416.267 164.024 431.294 168.249 431.447 168.291L432.193 168.493L432.045 169.252C435.973 189.619 409.029 252.722 403.205 295.214C397.287 338.383 431.022 387.004 381.448 378.831C381.561 379.206 399.744 416.534 399.448 416.831C394.94 421.345 247.172 376.363 237.273 373.374Z" fill="#E6E6E6"/>
<path d="M565.272 144.356C565.63 146.397 565.537 148.491 564.998 150.492C564.459 152.493 563.488 154.351 562.153 155.936C560.818 157.521 559.152 158.794 557.273 159.665C555.393 160.536 553.344 160.985 551.272 160.979L534.628 208.516L518.767 187.696L537.005 145.746C537.245 142.266 538.754 138.995 541.245 136.553C543.736 134.11 547.037 132.667 550.521 132.496C554.005 132.324 557.432 133.437 560.15 135.623C562.869 137.809 564.691 140.916 565.272 144.356Z" fill="#9E616A"/>
<path d="M492.021 276.828L461.851 270.304C407.433 253.073 388.774 231.808 382.69 216.999C376.199 201.199 382.114 189.634 382.37 189.151L382.525 188.942L402.042 169.948C404.521 167.536 407.485 165.678 410.736 164.498C413.988 163.317 417.454 162.842 420.903 163.103C424.352 163.363 427.707 164.354 430.745 166.009C433.782 167.665 436.433 169.947 438.521 172.705L478.155 225.037L496.507 200.173L505.409 193.05L510.211 179.59L528.627 159.556L549.948 169.422L541.921 217.865L531.18 224.433L530.673 231.565L530.497 231.773L492.021 276.828Z" fill="#E6E6E6"/>
<path d="M340.862 428.639C340.713 428.639 340.564 428.636 340.414 428.631C338.661 428.567 336.949 428.081 335.425 427.214C333.9 426.347 332.607 425.124 331.657 423.65C324.536 413.008 315.798 403.542 305.758 395.596C299.68 390.738 293.328 386.22 287.186 381.851C271.341 370.584 256.418 359.973 248.135 345.311C230.074 313.339 251.343 268.807 281.728 248.836C315.808 226.437 360.636 222.924 404.001 222.463C408.508 222.416 413.018 222.392 417.53 222.392C495.665 222.422 573.637 229.551 650.482 243.693C676.035 248.407 702.782 254.182 724.276 268.198C745.643 282.13 758.629 304.071 757.363 324.096C755.513 353.328 724.524 375.171 696.306 380.882C669.41 386.321 641.469 382.645 611.889 378.753C605.358 377.894 598.606 377.006 591.929 376.234C519.363 367.846 383.043 393.699 377.276 394.804L371.554 395.899L349.353 424.468C348.355 425.771 347.069 426.825 345.596 427.548C344.123 428.272 342.503 428.645 340.862 428.639Z" fill="#38A171"/>
<path d="M664.007 286.032H357.295C355.526 286.03 353.831 285.326 352.581 284.074C351.331 282.823 350.629 281.127 350.629 279.359C350.629 277.59 351.331 275.894 352.581 274.643C353.831 273.391 355.526 272.687 357.295 272.685H664.007C665.775 272.687 667.47 273.391 668.72 274.643C669.97 275.894 670.672 277.59 670.672 279.359C670.672 281.127 669.97 282.823 668.72 284.074C667.47 285.326 665.775 286.03 664.007 286.032Z" fill="white"/>
<path d="M664.007 326.994H357.295C356.418 326.995 355.549 326.824 354.739 326.49C353.928 326.156 353.192 325.665 352.571 325.046C351.95 324.427 351.457 323.691 351.121 322.882C350.785 322.072 350.611 321.204 350.61 320.328C350.609 319.451 350.781 318.582 351.116 317.772C351.45 316.962 351.942 316.226 352.561 315.605C353.181 314.985 353.916 314.493 354.726 314.157C355.536 313.821 356.404 313.648 357.281 313.647H664.007C665.775 313.649 667.47 314.353 668.72 315.605C669.97 316.856 670.672 318.552 670.672 320.321C670.672 322.089 669.97 323.785 668.72 325.036C667.47 326.288 665.775 326.992 664.007 326.994Z" fill="white"/>
<path d="M393.037 367.955H357.295C355.526 367.953 353.831 367.249 352.581 365.997C351.331 364.746 350.629 363.05 350.629 361.282C350.629 359.513 351.331 357.817 352.581 356.566C353.831 355.314 355.526 354.61 357.295 354.608H393.037C394.806 354.61 396.501 355.314 397.751 356.566C399 357.817 399.702 359.513 399.702 361.282C399.702 363.05 399 364.746 397.751 365.997C396.501 367.249 394.806 367.953 393.037 367.955Z" fill="white"/>
<path d="M565.834 146.217C591.063 146.217 611.516 125.764 611.516 100.534C611.516 75.3045 591.063 54.8518 565.834 54.8518C540.604 54.8518 520.151 75.3045 520.151 100.534C520.151 125.764 540.604 146.217 565.834 146.217Z" fill="white"/>
<path d="M565.834 146.775C556.688 146.775 547.748 144.063 540.144 138.982C532.54 133.901 526.613 126.679 523.113 118.23C519.614 109.781 518.698 100.483 520.482 91.5136C522.266 82.5439 526.67 74.3047 533.137 67.8379C539.604 61.3711 547.843 56.9671 556.812 55.1829C565.782 53.3987 575.08 54.3143 583.529 57.8141C591.978 61.3139 599.2 67.2405 604.281 74.8446C609.362 82.4488 612.074 91.3888 612.074 100.534C612.06 112.794 607.184 124.547 598.515 133.216C589.846 141.884 578.093 146.761 565.834 146.775Z" fill="#3F3D56"/>
<path d="M562.413 118.792C562.316 118.792 562.219 118.788 562.121 118.784C561.261 118.742 560.42 118.515 559.655 118.118C558.891 117.721 558.221 117.163 557.693 116.483L550.058 106.668C549.576 106.048 549.221 105.34 549.013 104.583C548.804 103.826 548.747 103.036 548.845 102.257C548.942 101.478 549.192 100.726 549.58 100.043C549.968 99.3609 550.486 98.7617 551.106 98.2798L551.381 98.066C552 97.5836 552.709 97.228 553.466 97.0196C554.223 96.8112 555.014 96.7541 555.793 96.8514C556.572 96.9488 557.324 97.1988 558.007 97.587C558.689 97.9753 559.289 98.4943 559.77 99.1143C560.156 99.6094 560.644 100.015 561.201 100.305C561.758 100.594 562.371 100.759 562.998 100.79C563.624 100.82 564.25 100.715 564.833 100.481C565.415 100.248 565.94 99.8911 566.372 99.4358L581.873 83.0713C582.964 81.922 584.467 81.2525 586.051 81.2094C587.635 81.1664 589.172 81.7534 590.324 82.8417L590.578 83.084C591.148 83.6237 591.606 84.2705 591.926 84.9873C592.246 85.7041 592.421 86.477 592.442 87.2617C592.463 88.0464 592.33 88.8275 592.049 89.5606C591.768 90.2936 591.346 90.9641 590.806 91.5338L566.751 116.925C566.193 117.514 565.52 117.984 564.774 118.305C564.029 118.626 563.225 118.792 562.413 118.792Z" fill="white"/>
<path d="M330.9 337.235C328.855 336.897 326.91 336.115 325.201 334.944C323.492 333.772 322.06 332.24 321.007 330.456C319.954 328.672 319.305 326.678 319.106 324.615C318.906 322.553 319.162 320.472 319.854 318.519L280.516 287.065L305.415 278.998L338.953 310.104C342.157 311.484 344.744 313.991 346.223 317.151C347.702 320.311 347.97 323.903 346.977 327.247C345.985 330.591 343.8 333.455 340.836 335.296C337.873 337.137 334.338 337.827 330.9 337.235Z" fill="#9E616A"/>
<path d="M230.179 224.232L246.33 197.927C280.618 152.291 306.864 141.731 322.852 140.898C339.911 140.008 348.862 149.421 349.233 149.822L349.379 150.037L360.833 174.745C362.288 177.884 363.059 181.296 363.096 184.755C363.132 188.214 362.432 191.641 361.044 194.809C359.655 197.978 357.609 200.814 355.04 203.132C352.472 205.449 349.44 207.194 346.147 208.251L283.639 228.308L301.018 253.862L304.79 264.621L315.898 273.611L328.699 297.624L312.326 314.472L269.279 290.848L266.64 278.538L260.079 275.697L259.941 275.461L230.179 224.232Z" fill="#E6E6E6"/>
<path d="M452.583 120.026L452.624 120.03C454.784 120.216 456.93 119.537 458.59 118.141C460.25 116.745 461.287 114.747 461.474 112.587L465.429 67.1277C466.145 58.984 465.217 50.7792 462.699 43.0014C457.764 27.8214 447.161 15.1314 433.101 7.57596C425.841 3.68517 417.868 1.30464 409.663 0.577838C376.096 -2.39557 363.884 4.67232 343.501 55.9719C323.119 107.271 339.54 101.5 339.54 101.5C339.444 102.596 339.569 103.7 339.908 104.746C340.574 106.787 342.003 108.492 343.896 109.505C344.867 110.023 345.933 110.341 347.03 110.439C386.755 120.257 426.841 130.603 452.59 120.027L452.583 120.026Z" fill="#2F2E41"/>
<path d="M378.26 43.8354C373.331 51.2341 370.705 59.9276 370.713 68.818C370.722 77.7084 373.365 86.3968 378.308 93.786C383.252 101.175 390.274 106.934 398.489 110.334C406.703 113.735 415.741 114.625 424.461 112.892C430.233 111.763 435.724 109.501 440.616 106.235C445.508 102.969 449.703 98.7654 452.958 93.8668C457.877 86.4706 460.496 77.7837 460.484 68.9012C460.473 60.0187 457.832 51.3384 452.895 43.9547C447.957 36.571 440.944 30.8146 432.739 27.4112C424.534 24.0078 415.506 23.1098 406.792 24.8304C401.015 25.9524 395.518 28.2102 390.62 31.4729C385.722 34.7356 381.521 38.9382 378.26 43.8371L378.26 43.8354Z" fill="#9E616A"/>
<path d="M479.525 72.0817C480.091 65.6409 479.357 59.152 477.366 53.0006C476.813 37.9243 472.348 24.2951 453.96 24.9904C448.254 21.9354 441.992 20.0592 435.546 19.4736L426.452 18.6364C426.35 18.6269 426.247 18.6178 426.145 18.6089C413.42 17.5098 400.78 21.5105 391.005 29.731C381.23 37.9516 375.121 49.7185 374.022 62.4433L373.943 63.3538L393.184 65.1061L401.342 47.3414L401.056 65.8268L410.994 66.7356L415.108 57.7729L414.966 67.0931C429.798 79.9821 452.163 80.5146 479.437 72.9932L479.525 72.0817Z" fill="#2F2E41"/>
<path d="M418.303 115.6C418.477 117.096 418.227 118.611 417.583 119.972C417.258 120.669 416.837 121.317 416.333 121.897C415.901 122.391 415.412 122.832 414.877 123.212C413.291 124.331 411.359 124.849 409.426 124.673C409.305 124.661 409.185 124.647 409.065 124.631C408.945 124.615 408.825 124.596 408.706 124.574C408.585 124.554 408.465 124.53 408.346 124.502C408.227 124.475 408.108 124.445 407.988 124.413L401.264 122.577L393.604 101.656L392.002 120.069L361.429 111.776L368.227 33.6367L420.275 38.4168L418.857 39.7998C414.148 44.4445 410.812 50.2984 409.216 56.7172C407.632 63.2214 407.174 69.9489 407.863 76.6076C408.51 83.341 409.801 89.9967 411.72 96.4832C413.391 102.227 415.392 107.87 417.712 113.384C418.012 114.091 418.211 114.837 418.303 115.6Z" fill="#2F2E41"/>
</g>
<defs>
<clipPath id="clip0_1_52">
<rect width="757.448" height="598.078" fill="white"/>
</clipPath>
</defs>
</svg>
